<svg width="18px" height="18px" viewBox="904 194 18 18" version="1.1" xmlns="http://www.w3.org/2000/svg" xmlns:xlink="http://www.w3.org/1999/xlink">
    <!-- Generator: Sketch 3.8.3 (29802) - http://www.bohemiancoding.com/sketch -->
    <desc>Created with Sketch.</desc>
    <defs></defs>
    <g id="Pause" stroke="none" stroke-width="1" fill="none" fill-rule="evenodd" transform="translate(902.000000, 192.000000)">
        <path d="M11.75,14.375 L11.75,7.625 C11.75,7.417625 11.918,7.25 12.125,7.25 L14.375,7.25 C14.582,7.25 14.75,7.417625 14.75,7.625 L14.75,14.375 C14.75,14.582375 14.582,14.75 14.375,14.75 L12.125,14.75 C11.918,14.75 11.75,14.582375 11.75,14.375 L11.75,14.375 Z M7.25,7.625 C7.25,7.417625 7.418,7.25 7.625,7.25 L9.875,7.25 C10.082,7.25 10.25,7.417625 10.25,7.625 L10.25,14.375 C10.25,14.582375 10.082,14.75 9.875,14.75 L7.625,14.75 C7.418,14.75 7.25,14.582375 7.25,14.375 L7.25,7.625 Z M11,20 C15.962375,20 20,15.962375 20,11 C20,6.037625 15.962375,2 11,2 C6.037625,2 2,6.037625 2,11 C2,15.962375 6.037625,20 11,20 L11,20 Z" id="Fill-1606" fill="#D0011B"></path>
    </g>
</svg>
