<svg class="icon-close" viewBox="11 10 13 13" version="1.1" xmlns="http://www.w3.org/2000/svg" xmlns:xlink="http://www.w3.org/1999/xlink">
    <!-- Generator: Sketch 3.8.3 (29802) - http://www.bohemiancoding.com/sketch -->
    <desc>Created with Sketch.</desc>
    <defs></defs>
    <path d="M23.6428693,10.180375 C23.4422361,9.97400944 23.1118427,9.96957988 22.9059983,10.1707342 L17.334909,15.5964295 L11.9133827,10.1532765 C11.7104044,9.94925599 11.3805322,9.94899543 11.1765116,10.1519737 C10.9727517,10.354952 10.97197,10.6850848 11.1749483,10.8888448 L16.5881366,16.3236598 L11.1574906,21.6125597 C10.9513855,21.8134535 10.946956,22.1433258 11.1478497,22.3494308 C11.2499903,22.454177 11.3854828,22.5070712 11.521236,22.5070712 C11.652299,22.5070712 11.783362,22.4578248 11.8847208,22.3590716 L17.3237048,17.0620942 L22.6167738,22.3765293 C22.7183932,22.4786699 22.8520618,22.5300007 22.985991,22.5300007 C23.1188779,22.5300007 23.2520254,22.479191 23.3536448,22.3780927 C23.5574048,22.1748538 23.5581865,21.8449816 23.3552082,21.640961 L18.0702167,16.3351245 L23.6332285,10.9172461 C23.8393335,10.7166129 23.8437631,10.3864801 23.6428693,10.180375" id="Fill-2368" stroke="none" fill="#000000" fill-rule="evenodd"></path>
</svg>