<svg width="14px" height="14px" viewBox="1174 191 14 14" version="1.1" xmlns="http://www.w3.org/2000/svg" xmlns:xlink="http://www.w3.org/1999/xlink">
    <!-- Generator: Sketch 3.8.3 (29802) - http://www.bohemiancoding.com/sketch -->
    <desc>Created with Sketch.</desc>
    <defs></defs>
    <g id="Group" stroke="none" stroke-width="1" fill="none" fill-rule="evenodd" transform="translate(1174.000000, 191.000000)">
        <path d="M13.007025,1.500725 C13.006775,1.470225 13.004025,1.439725 12.998025,1.409475 C12.995025,1.394225 12.989525,1.380225 12.985025,1.365725 C12.980275,1.348975 12.976525,1.332225 12.969775,1.315975 C12.962775,1.299225 12.953275,1.283725 12.944525,1.267725 C12.937525,1.255225 12.932025,1.241975 12.924025,1.229975 C12.887525,1.174975 12.840525,1.127725 12.785525,1.090975 C12.775025,1.083725 12.763275,1.078975 12.752275,1.072725 C12.734775,1.062975 12.718025,1.052475 12.699525,1.044725 C12.686025,1.039225 12.671775,1.036225 12.658025,1.031975 C12.640775,1.026475 12.624025,1.019975 12.606025,1.016475 C12.584775,1.012225 12.563525,1.011225 12.542025,1.009725 C12.530775,1.008975 12.520025,1.006225 12.508775,1.006225 L10.008775,1.001475 L10.007775,1.001475 C9.732025,1.001475 9.508275,1.224725 9.507775,1.500475 C9.507275,1.776725 9.730525,2.000975 10.006775,2.001475 L11.299525,2.003975 L8.147025,5.144225 C7.951525,5.339225 7.951025,5.655725 8.145775,5.851225 C8.243525,5.949475 8.371775,5.998475 8.500025,5.998475 C8.627775,5.998475 8.755275,5.949975 8.852775,5.852725 L12.005275,2.712475 L12.003025,4.005475 C12.002525,4.281475 12.225775,4.505975 12.502025,4.506225 L12.503025,4.506225 C12.778775,4.506225 13.002525,4.283225 13.003025,4.007225 L13.007775,1.507225 C13.007775,1.504975 13.007025,1.502975 13.007025,1.500725" id="Fill-2336" fill="#B9B9B9"></path>
        <path d="M5.151,8.148675 L2.0005,11.286925 L2.001,9.995425 C2.001,9.719175 1.77725,9.495175 1.50125,9.495175 L1.501,9.495175 C1.225,9.495175 1.001,9.718675 1.001,9.994925 L1,12.454175 C0.991,12.565925 1.0175,12.679425 1.083,12.775675 C1.1015,12.803425 1.1225,12.829675 1.14625,12.853425 C1.24,12.947175 1.36725,12.999925 1.5,12.999925 L3.996,12.999925 C4.27225,12.999925 4.496,12.776175 4.496,12.499925 C4.496,12.223925 4.27225,11.999925 3.996,11.999925 L2.70175,11.999925 L5.85675,8.857175 C6.05225,8.662425 6.053,8.345675 5.85825,8.150175 C5.6635,7.954675 5.347,7.954175 5.151,8.148675" id="Fill-2337" fill="#B9B9B9"></path>
        <path d="M1.501475,4.4961 L1.501725,4.4961 C1.777975,4.49585 2.001475,4.2721 2.001475,3.99585 L2.000725,2.70085 L5.144225,5.8566 C5.241975,5.95485 5.370225,6.00385 5.498475,6.00385 C5.626225,6.00385 5.753725,5.95535 5.851475,5.8581 C6.046975,5.66335 6.047475,5.3466 5.852725,5.1511 L2.714225,2.0006 L4.005975,2.0011 L4.006225,2.0011 C4.282225,2.0011 4.505975,1.77735 4.506225,1.50135 C4.506475,1.2251 4.282475,1.0011 4.006475,1.0011 L1.545725,1.0001 C1.435725,0.99135 1.323725,1.0171 1.228225,1.0811 C1.198975,1.09985 1.171475,1.12135 1.146225,1.1466 C1.052475,1.24035 0.999975,1.3676 0.999975,1.50035 L1.001475,3.99635 C1.001475,4.27235 1.225475,4.4961 1.501475,4.4961" id="Fill-2338" fill="#B9B9B9"></path>
        <path d="M12.500975,9.5078 L12.499975,9.5078 C12.224225,9.5078 12.000475,9.73105 11.999975,10.0068 L11.997475,11.2998 L8.857225,8.1473 C8.662475,7.95155 8.345725,7.95105 8.149975,8.1458 C7.954475,8.34055 7.953975,8.6573 8.148725,8.8528 L11.288975,12.0053 L9.995975,12.0028 L9.995225,12.0028 C9.719475,12.0028 9.495725,12.22605 9.495225,12.50205 C9.494725,12.77805 9.717975,13.00255 9.994225,13.0028 L12.494225,13.0078 L12.495225,13.0078 C12.527975,13.0078 12.560725,13.0043 12.592975,12.99805 C12.607475,12.99505 12.620975,12.98955 12.635225,12.98555 C12.652225,12.98055 12.669475,12.97655 12.685975,12.9698 C12.702725,12.9628 12.717975,12.9533 12.733975,12.94455 C12.746475,12.93755 12.759725,12.93205 12.771975,12.92405 C12.797725,12.9068 12.821725,12.88705 12.843725,12.86555 C12.844975,12.8643 12.846725,12.8633 12.847975,12.86205 L12.848225,12.86205 C12.871475,12.8388 12.892225,12.81305 12.910475,12.7858 C12.918475,12.77405 12.923725,12.76155 12.930475,12.7493 C12.939475,12.73305 12.949475,12.71705 12.956725,12.6998 C12.962975,12.6843 12.966725,12.66805 12.971475,12.65205 C12.975975,12.6368 12.981975,12.6223 12.985225,12.60655 C12.991225,12.57605 12.994225,12.5453 12.994475,12.51455 C12.994475,12.5128 12.995225,12.5108 12.995225,12.5108 L12.999975,10.0088 C13.000475,9.73255 12.777225,9.5083 12.500975,9.5078" id="Fill-2339" fill="#B9B9B9"></path>
    </g>
</svg>
