<svg width="23px" height="22px" viewBox="852 114 23 22" version="1.1" xmlns="http://www.w3.org/2000/svg" xmlns:xlink="http://www.w3.org/1999/xlink">
    <!-- Generator: Sketch 3.8.3 (29802) - http://www.bohemiancoding.com/sketch -->
    <desc>Created with Sketch.</desc>
    <defs></defs>
    <g id="Fill-51-+-Fill-52" stroke="none" stroke-width="1" fill="none" fill-rule="evenodd" transform="translate(852.000000, 114.000000)">
        <path d="M17.875,9.625 C17.622,9.625 17.4166667,9.83033333 17.4166667,10.0833333 L17.4166667,21.0833333 L0.916666667,21.0833333 L0.916666667,2.75 L15.125,2.75 C15.378,2.75 15.5833333,2.54466667 15.5833333,2.29166667 C15.5833333,2.03866667 15.378,1.83333333 15.125,1.83333333 L0.458333333,1.83333333 C0.205333333,1.83333333 0,2.03866667 0,2.29166667 L0,21.5416667 C0,21.7946667 0.205333333,22 0.458333333,22 L17.875,22 C18.128,22 18.3333333,21.7946667 18.3333333,21.5416667 L18.3333333,10.0833333 C18.3333333,9.83033333 18.128,9.625 17.875,9.625" id="Fill-51" fill="#A3A3A3"></path>
        <path d="M20.9360708,1.71205833 L19.9634875,2.68418333 L19.3154042,2.0361 L20.2875292,1.063975 C20.3851542,0.96635 20.4891958,0.91685 20.5969042,0.91685 C20.7779458,0.91685 20.9731958,1.05755833 21.0501958,1.24455833 C21.1189458,1.410475 21.0804458,1.56768333 20.9360708,1.71205833 L20.9360708,1.71205833 Z M12.2382792,10.40985 L10.9416542,11.0583917 L11.5897375,9.76130833 L18.6673208,2.68418333 L19.3154042,3.332725 L12.2382792,10.40985 Z M21.8971958,0.893933333 C21.6758208,0.359516667 21.1533208,0.000183333333 20.5969042,0.000183333333 C20.2426125,0.000183333333 19.9116958,0.143641667 19.6394458,0.415891667 L10.8889458,9.16639167 C10.8541125,9.201225 10.8252375,9.24155833 10.8032375,9.2851 L9.50707083,11.87835 C9.41907083,12.0548083 9.45344583,12.267475 9.59277917,12.4072667 C9.68077917,12.4952667 9.7981125,12.5415583 9.91727917,12.5415583 C9.98694583,12.5415583 10.0570708,12.5255167 10.1221542,12.492975 L12.7149458,11.19635 C12.7589458,11.1748083 12.7992792,11.145475 12.8336542,11.1106417 L20.2870708,3.657225 L20.2875292,3.65676667 L20.2879875,3.65630833 L21.5841542,2.36014167 C21.9916125,1.95268333 22.1089458,1.40451667 21.8971958,0.893933333 L21.8971958,0.893933333 Z" id="Fill-52" fill="#A3A3A3"></path>
    </g>
</svg>
