<svg width="12px" height="13px" viewBox="1173 194 12 13" version="1.1" xmlns="http://www.w3.org/2000/svg" xmlns:xlink="http://www.w3.org/1999/xlink">
    <!-- Generator: Sketch 3.8.3 (29802) - http://www.bohemiancoding.com/sketch -->
    <desc>Created with Sketch.</desc>
    <defs></defs>
    <g id="Group" stroke="none" stroke-width="1" fill="none" fill-rule="evenodd" transform="translate(1173.000000, 194.000000)">
        <path d="M7.34693878,5.14285714 L9.79591837,5.14285714 C10.0662857,5.14285714 10.2857143,4.92342857 10.2857143,4.65306122 C10.2857143,4.38269388 10.0662857,4.16326531 9.79591837,4.16326531 L8.52636735,4.16326531 L11.618449,1.08318367 C11.8102041,0.892408163 11.8106939,0.582122449 11.6199184,0.390612245 C11.428898,0.199102041 11.1188571,0.198612245 10.927102,0.389142857 L7.83673469,3.4675102 L7.83673469,2.20408163 C7.83673469,1.93371429 7.61730612,1.71428571 7.34693878,1.71428571 C7.07632653,1.71428571 6.85714286,1.93371429 6.85714286,2.20408163 L6.85714286,4.65306122 C6.85714286,4.92342857 7.07632653,5.14285714 7.34693878,5.14285714" id="Fill-2332" fill="#B8B8B8"></path>
        <path d="M4.896,7.50465306 C4.89306122,7.48971429 4.88767347,7.476 4.88326531,7.46155102 C4.87861224,7.44538776 4.87493878,7.42897959 4.86832653,7.41306122 C4.86146939,7.39640816 4.85216327,7.38146939 4.84359184,7.36579592 C4.83673469,7.35330612 4.83134694,7.34057143 4.8235102,7.32881633 C4.7877551,7.27493878 4.74171429,7.22865306 4.68783673,7.19265306 C4.67755102,7.18555102 4.66604082,7.18089796 4.65526531,7.17477551 C4.63812245,7.16522449 4.62171429,7.15493878 4.60359184,7.14734694 C4.59036735,7.14195918 4.57640816,7.13902041 4.56293878,7.13461224 C4.54604082,7.12946939 4.52963265,7.12285714 4.512,7.11942857 C4.49118367,7.11526531 4.47036735,7.11453061 4.44930612,7.11306122 C4.43828571,7.11232653 4.4277551,7.10963265 4.41673469,7.10963265 L1.9677551,7.10497959 L1.96677551,7.10497959 C1.69665306,7.10497959 1.47746939,7.32342857 1.47697959,7.59379592 C1.4764898,7.86416327 1.69518367,8.08408163 1.96579592,8.08457143 L3.23216327,8.08702041 L0.144,11.1631837 C-0.0475102041,11.3539592 -0.048,11.6642449 0.14277551,11.8557551 C0.238530612,11.952 0.364163265,12 0.489795918,12 C0.614938776,12 0.739836735,11.9524898 0.835591837,11.8572245 L3.9235102,8.78106122 L3.92130612,10.0474286 C3.92081633,10.3180408 4.1395102,10.5377143 4.41012245,10.5382041 L4.41110204,10.5382041 C4.68122449,10.5382041 4.90040816,10.3197551 4.90089796,10.0493878 L4.90555102,7.60040816 C4.90555102,7.59820408 4.90481633,7.5962449 4.90481633,7.59404082 C4.90457143,7.56416327 4.90187755,7.53404082 4.896,7.50465306" id="Fill-2333" fill="#B8B8B8"></path>
        <path d="M3.21908571,4.16326531 L1.95908571,4.16326531 C1.68871837,4.16326531 1.4692898,4.38269388 1.4692898,4.65306122 C1.4692898,4.92342857 1.68871837,5.14285714 1.95908571,5.14285714 L4.36226939,5.14285714 C4.37549388,5.14383673 4.38871837,5.14677551 4.40218776,5.14677551 C4.4690449,5.14677551 4.53565714,5.13183673 4.59835102,5.10465306 C4.6008,5.10342857 4.60300408,5.10195918 4.60545306,5.10073469 C4.62945306,5.08971429 4.65296327,5.07771429 4.67549388,5.06277551 C4.80920816,4.97534694 4.89786122,4.82473469 4.89786122,4.65306122 L4.89786122,2.20408163 C4.89786122,1.93371429 4.67867755,1.71428571 4.40806531,1.71428571 C4.13769796,1.71428571 3.91826939,1.93371429 3.91826939,2.20408163 L3.91826939,3.47730612 L0.838187755,0.38522449 C0.647412245,0.193714286 0.337371429,0.19322449 0.145616327,0.383755102 C-0.0461387755,0.57477551 -0.0466285714,0.884816327 0.144146939,1.07657143 L3.21908571,4.16326531 Z" id="Fill-2334" fill="#B8B8B8"></path>
        <path d="M8.5332,8.08395918 L9.79981224,8.08640816 L9.80079184,8.08640816 C10.0709143,8.08640816 10.290098,7.86771429 10.2905878,7.59759184 C10.2910776,7.32697959 10.0721388,7.10730612 9.80177143,7.10681633 L7.35279184,7.10191837 L7.35181224,7.10191837 C7.33809796,7.10191837 7.32536327,7.10485714 7.31189388,7.10608163 C7.29377143,7.10755102 7.27540408,7.10804082 7.25728163,7.11146939 C7.23842449,7.11514286 7.22054694,7.1217551 7.20242449,7.12763265 C7.19042449,7.13155102 7.1776898,7.134 7.1656898,7.13889796 C7.14658776,7.14697959 7.1289551,7.1575102 7.11107755,7.16755102 C7.10103673,7.17318367 7.09075102,7.17759184 7.0809551,7.18395918 C7.05548571,7.20085714 7.03148571,7.22044898 7.0096898,7.242 C7.00846531,7.24297959 7.00724082,7.24371429 7.00601633,7.24469388 L7.00601633,7.24493878 C6.98324082,7.26771429 6.96266939,7.29269388 6.94479184,7.31963265 C6.9372,7.33089796 6.93205714,7.34314286 6.9254449,7.35489796 C6.91638367,7.37106122 6.90683265,7.38673469 6.89973061,7.40387755 C6.89336327,7.41906122 6.88993469,7.43473469 6.88503673,7.45040816 C6.88062857,7.46534694 6.87475102,7.47955102 6.87181224,7.49522449 C6.8656898,7.52485714 6.86299592,7.55497959 6.86250612,7.58510204 C6.86250612,7.58706122 6.86201633,7.58902041 6.86201633,7.59097959 L6.85711837,10.0399592 C6.85662857,10.3103265 7.07556735,10.5302449 7.34593469,10.5304898 L7.34691429,10.5304898 C7.61703673,10.5304898 7.83622041,10.3120408 7.8367102,10.0416735 L7.83915918,8.77506122 L10.9153224,11.8632245 C11.0110776,11.9592245 11.1367102,12.0074694 11.2623429,12.0074694 C11.3874857,12.0074694 11.5123837,11.9597143 11.6081388,11.8646939 C11.799649,11.6736735 11.8003837,11.3636327 11.6093633,11.1721224 L8.5332,8.08395918 Z" id="Fill-2335" fill="#B8B8B8"></path>
    </g>
</svg>
